# xmcd
#
# Track frame offsets: 
#        150
#        15805
#        30970
#        46982
#        64462
#        82147
#        100940
#        120755
#        136272
#        156465
#        174672
#        191402
#        210035
#        225172
#        244220
#
# Disc length: 3544 seconds
#
# Revision: 2
# Processed by: cddbd v1.5.2PL0 Copyright (c) Steve Scherf et al.
# Submitted via: ExactAudioCopyFreeDBPlugin 1.0
#
DISCID=b00dd60f
DTITLE=Toya - Toya
DYEAR=2001
DGENRE=R&B
TTITLE0=No Matta What (Party All Night)
TTITLE1=How Can I Be Down
TTITLE2=I Do!!
TTITLE3=The Truth
TTITLE4=Think
TTITLE5=Don't Make Me
TTITLE6=Moving On
TTITLE7=What Else Can I Do
TTITLE8=Untouchables Feat. Penelope
TTITLE9=Book Of Love Feat. Loon
TTITLE10=What's A Girl To Do
TTITLE11=I Messed Up
TTITLE12=Bounce
TTITLE13=Fiasco Feat. T.I.
TTITLE14=I Do Part 2 Feat. Murphy Lee and St. Lunatics
EXTD=
EXTT0=
EXTT1=
EXTT2=
EXTT3=
EXTT4=
EXTT5=
EXTT6=
EXTT7=
EXTT8=
EXTT9=
EXTT10=
EXTT11=
EXTT12=
EXTT13=
EXTT14=
PLAYORDER=
